<?xml version="1.0" encoding="UTF-8" standalone="no"?>
<svg
   width="112mm"
   height="32mm"
   version="1.1"
   viewBox="0 0 112 32"
   id="svg43"
   sodipodi:docname="espmap_nobg_inv.svg"
   inkscape:version="1.2.2 (732a01da63, 2022-12-09)"
   xmlns:inkscape="http://www.inkscape.org/namespaces/inkscape"
   xmlns:sodipodi="http://sodipodi.sourceforge.net/DTD/sodipodi-0.dtd"
   xmlns="http://www.w3.org/2000/svg"
   xmlns:svg="http://www.w3.org/2000/svg"
   xmlns:rdf="http://www.w3.org/1999/02/22-rdf-syntax-ns#"
   xmlns:cc="http://creativecommons.org/ns#"
   xmlns:dc="http://purl.org/dc/elements/1.1/">
  <title
     id="title588">ESP-PLC Logo</title>
  <sodipodi:namedview
     id="namedview45"
     pagecolor="#858585"
     bordercolor="#000000"
     borderopacity="0.25"
     inkscape:showpageshadow="2"
     inkscape:pageopacity="0"
     inkscape:pagecheckerboard="0"
     inkscape:deskcolor="#d1d1d1"
     inkscape:document-units="mm"
     showgrid="false"
     inkscape:zoom="2.1782467"
     inkscape:cx="194.65196"
     inkscape:cy="56.467433"
     inkscape:window-width="1920"
     inkscape:window-height="1009"
     inkscape:window-x="1912"
     inkscape:window-y="-8"
     inkscape:window-maximized="1"
     inkscape:current-layer="layer1"
     showguides="false" />
  <defs
     id="defs19">
    <clipPath
       clipPathUnits="userSpaceOnUse"
       id="clipPath311">
      <g
         id="g315">
        <rect
           x="76.005997"
           y="47.710541"
           width="52.873001"
           height="42.237"
           opacity="0.73152"
           stroke-width="0.26458"
           id="rect313" />
      </g>
    </clipPath>
    <clipPath
       clipPathUnits="userSpaceOnUse"
       id="clipPath317">
      <g
         id="g321">
        <rect
           x="76.005997"
           y="47.710541"
           width="52.873001"
           height="42.237"
           opacity="0.73152"
           stroke-width="0.26458"
           id="rect319" />
      </g>
    </clipPath>
    <clipPath
       clipPathUnits="userSpaceOnUse"
       id="clipPath323">
      <g
         id="g327">
        <rect
           x="76.005997"
           y="47.710541"
           width="52.873001"
           height="42.237"
           opacity="0.73152"
           stroke-width="0.26458"
           id="rect325" />
      </g>
    </clipPath>
    <clipPath
       clipPathUnits="userSpaceOnUse"
       id="clipPath329">
      <g
         id="g333">
        <rect
           x="76.005997"
           y="47.710541"
           width="52.873001"
           height="42.237"
           opacity="0.73152"
           stroke-width="0.26458"
           id="rect331" />
      </g>
    </clipPath>
    <clipPath
       clipPathUnits="userSpaceOnUse"
       id="clipPath335">
      <g
         id="g339">
        <rect
           x="76.005997"
           y="47.710541"
           width="52.873001"
           height="42.237"
           opacity="0.73152"
           stroke-width="0.26458"
           id="rect337" />
      </g>
    </clipPath>
    <clipPath
       clipPathUnits="userSpaceOnUse"
       id="clipPath341">
      <g
         id="g345">
        <rect
           x="76.005997"
           y="47.710541"
           width="52.873001"
           height="42.237"
           opacity="0.73152"
           stroke-width="0.26458"
           id="rect343" />
      </g>
    </clipPath>
  </defs>
  <g
     inkscape:groupmode="layer"
     id="layer1"
     inkscape:label="fondo"
     transform="matrix(0.97006714,0,0,0.8760401,-7.2562344,-8.2935115)">
    <path
       id="rect608"
       style="fill:#000000;stroke:#000000;stroke-width:0"
       d="M 11.08818 13.462348 L 11.08818 41.999882 L 59.641487 41.999882 L 59.641487 13.462348 L 11.08818 13.462348 z M 34.059162 17.45765 C 35.521796 17.45765 36.81427 17.843554 37.936757 18.615007 C 39.059244 19.367644 39.943371 20.468366 40.589652 21.917192 L 37.145683 24.146374 C 36.822542 23.393736 36.423292 22.829718 35.947085 22.453399 C 35.47088 22.058266 34.841502 21.860563 34.059162 21.860563 C 33.446896 21.860563 32.970581 22.010773 32.630434 22.311826 C 32.307294 22.594066 32.145668 22.942565 32.145668 23.356516 C 32.145668 23.845729 32.349575 24.269039 32.757751 24.626541 C 33.182936 24.984045 34.050471 25.378857 35.360039 25.811624 C 36.074349 26.05623 36.627195 26.253932 37.018365 26.40446 C 37.409534 26.554988 37.902974 26.809091 38.498233 27.166593 C 39.110498 27.505281 39.569687 27.872186 39.875821 28.267322 C 40.19896 28.643639 40.479399 29.151847 40.717502 29.791589 C 40.972613 30.412514 41.099988 31.12733 41.099988 31.936416 C 41.099988 33.818009 40.487735 35.304634 39.263204 36.395959 C 38.038673 37.468467 36.440072 38.00458 34.467217 38.00458 C 32.647428 38.00458 31.125358 37.571774 29.900829 36.706239 C 28.693305 35.821891 27.834332 34.627365 27.324111 33.122088 L 30.84479 30.864002 C 31.559101 32.689149 32.808761 33.601666 34.594535 33.601666 C 36.210235 33.601666 37.018365 33.065554 37.018365 31.993045 C 37.018365 31.409752 36.754519 30.957947 36.227291 30.638076 C 35.717069 30.299389 34.747846 29.913485 33.319228 29.480718 C 32.570902 29.254928 31.91637 29.001413 31.355126 28.719175 C 30.793884 28.436936 30.241036 28.070029 29.696801 27.618446 C 29.169571 27.148048 28.761224 26.564441 28.472101 25.868253 C 28.199982 25.172062 28.064045 24.372349 28.064045 23.469184 C 28.064045 21.644039 28.650609 20.185909 29.824118 19.094585 C 31.014634 18.003261 32.426454 17.45765 34.059162 17.45765 z M 14.696224 17.852874 L 25.793636 17.852874 L 25.793636 22.199158 L 18.777847 22.199158 L 18.777847 25.473029 L 25.155449 25.473029 L 25.155449 29.763274 L 18.777847 29.763274 L 18.777847 33.263071 L 25.920953 33.263071 L 25.920953 37.609356 L 14.696224 37.609356 L 14.696224 17.852874 z M 43.013482 17.852874 L 49.774102 17.852874 C 51.525861 17.852874 53.005119 18.511289 54.212641 19.828404 C 55.420164 21.145516 56.023854 22.74495 56.023854 24.626541 C 56.023854 26.508134 55.420164 28.107565 54.212641 29.424679 C 53.005119 30.741794 51.525861 31.400209 49.774102 31.400209 L 47.095104 31.400209 L 47.095104 37.609356 L 43.013482 37.609356 L 43.013482 17.852874 z M 47.095104 22.08649 L 47.095104 27.166593 L 49.774102 27.166593 C 50.403375 27.166593 50.92197 26.921989 51.330148 26.432774 C 51.738323 25.943561 51.942231 25.341547 51.942231 24.626541 C 51.942231 23.911537 51.738323 23.309522 51.330148 22.820309 C 50.92197 22.331094 50.403375 22.08649 49.774102 22.08649 L 47.095104 22.08649 z " />
  </g>
  <path
     d="M 72.580828,7.3461396 V 24.653861 H 68.621229 V 14.590657 l -4.479295,7.343419 H 63.696479 L 59.217183,14.590657 V 24.653861 H 55.257585 V 7.3461396 h 3.959598 l 4.702023,7.6895734 4.702023,-7.6895734 z"
     style="font-weight:bold;font-size:24.7364px;font-family:Gilroy-ExtraBold;-inkscape-font-specification:'Gilroy-ExtraBold Bold';fill:#000000;stroke:#000000;stroke-width:0"
     id="path496" />
  <path
     d="m 86.563155,24.653861 -0.866162,-2.719785 h -6.434347 l -0.866163,2.719785 h -4.33081 L 79.955575,7.3461396 h 5.048488 l 5.889903,17.3077214 z m -6.11263,-6.428582 h 4.058588 l -2.029294,-6.354407 z"
     style="font-weight:bold;font-size:24.7364px;font-family:Gilroy-ExtraBold;-inkscape-font-specification:'Gilroy-ExtraBold Bold';fill:#000000;stroke:#000000;stroke-width:0"
     id="path498" />
  <path
     d="m 98.936903,7.3461396 q 2.548997,0 4.306057,1.7307721 1.75708,1.7307723 1.75708,4.2033043 0,2.472531 -1.75708,4.203303 -1.75706,1.730772 -4.306057,1.730772 h -2.598487 v 5.43957 H 92.378818 V 7.3461396 Z m 0,8.1593544 q 0.915657,0 1.509597,-0.642858 0.59394,-0.642859 0.59394,-1.58242 0,-0.939562 -0.59394,-1.582421 -0.59394,-0.642858 -1.509597,-0.642858 h -2.598487 v 4.450557 z"
     style="font-weight:bold;font-size:24.7364px;font-family:Gilroy-ExtraBold;-inkscape-font-specification:'Gilroy-ExtraBold Bold';fill:#000000;stroke:#000000;stroke-width:0"
     id="path500" />
  <metadata
     id="metadata586">
    <rdf:RDF>
      <cc:Work
         rdf:about="">
        <dc:title>ESP-PLC Logo</dc:title>
        <dc:creator>
          <cc:Agent>
            <dc:title>Enrique W. Philippeaux</dc:title>
          </cc:Agent>
        </dc:creator>
      </cc:Work>
    </rdf:RDF>
  </metadata>
</svg>
